<svg width="68" height="56" viewBox="0 0 68 56" fill="none" xmlns="http://www.w3.org/2000/svg">
<circle cx="2.5" cy="2.5" r="2.5" fill="#9187F3"/>
<circle cx="17.5" cy="2.5" r="2.5" fill="#9187F3"/>
<circle cx="32.5" cy="2.5" r="2.5" fill="#9187F3"/>
<circle cx="47.5" cy="2.5" r="2.5" fill="#9187F3"/>
<circle cx="62.5" cy="2.5" r="2.5" fill="#9187F3"/>
<circle cx="2.5" cy="19.5" r="2.5" fill="#9187F3"/>
<circle cx="17.5" cy="19.5" r="2.5" fill="#9187F3"/>
<circle cx="32.5" cy="19.5" r="2.5" fill="#9187F3"/>
<circle cx="47.5" cy="19.5" r="2.5" fill="#9187F3"/>
<circle cx="62.5" cy="19.5" r="2.5" fill="#9187F3"/>
<circle cx="2.5" cy="36.5" r="2.5" fill="#9187F3"/>
<circle cx="17.5" cy="36.5" r="2.5" fill="#9187F3"/>
<circle cx="32.5" cy="36.5" r="2.5" fill="#9187F3"/>
<circle cx="47.5" cy="36.5" r="2.5" fill="#9187F3"/>
<circle cx="62.5" cy="36.5" r="2.5" fill="#9187F3"/>
<circle cx="2.5" cy="53.5" r="2.5" fill="#9187F3"/>
<circle cx="17.5" cy="53.5" r="2.5" fill="#9187F3"/>
<circle cx="32.5" cy="53.5" r="2.5" fill="#9187F3"/>
<circle cx="47.5" cy="53.5" r="2.5" fill="#9187F3"/>
<circle cx="62.5" cy="53.5" r="2.5" fill="#9187F3"/>
</svg>
